<?xml version="1.0" encoding="utf-8"?>
<svg width="1792" height="1792" viewBox="0 0 1792 1792" xmlns="http://www.w3.org/2000/svg">
  <path d="M 1395 1152 C 1395 1143.333 1391.667 1135.667 1385 1129 L 919 663 C 912.333 656.333 904.667 653 896 653 C 887.333 653 879.667 656.333 873 663 L 407 1129 C 400.333 1135.667 397 1143.333 397 1152 C 397 1160.667 400.333 1168.333 407 1175 L 457 1225 C 463.667 1231.667 471.333 1235 480 1235 C 488.667 1235 496.333 1231.667 503 1225 L 896 832 L 1289 1225 C 1295.667 1231.667 1303.333 1235 1312 1235 C 1320.667 1235 1328.333 1231.667 1335 1225 L 1385 1175 C 1391.667 1168.333 1395 1160.667 1395 1152 Z" fill="#0F65C8"/>
</svg>